<svg xmlns="http://www.w3.org/2000/svg" viewBox="0 0 512 512"><path d="M439.529 512H72.471c-36.039 0-65.36-29.321-65.36-65.36V199.111c0-7.854 6.367-14.222 14.222-14.222h469.333c7.855 0 14.222 6.369 14.222 14.222v71.111c0 7.854-6.367 14.222-14.222 14.222s-14.222-6.369-14.222-14.222v-56.889H35.556V446.64c0 20.355 16.56 36.915 36.915 36.915H439.53c20.355 0 36.915-16.56 36.915-36.915v-91.085c0-7.854 6.367-14.222 14.222-14.222s14.222 6.369 14.222 14.222v91.085c0 36.039-29.321 65.36-65.36 65.36zM153.482 135.111h-22.519c-21.239 0-38.518-17.279-38.518-38.518V38.518C92.444 17.279 109.723 0 130.962 0h22.518C174.721 0 192 17.279 192 38.518v58.075c0 21.24-17.279 38.518-38.518 38.518zm-22.52-106.667c-5.554 0-10.074 4.52-10.074 10.074v58.075c0 5.554 4.52 10.074 10.074 10.074h22.518c5.555 0 10.074-4.52 10.074-10.074V38.518c0-5.554-4.52-10.074-10.074-10.074h-22.518zm250.076 106.667H358.52c-21.241 0-38.519-17.279-38.519-38.518V38.518C320 17.279 337.279 0 358.518 0h22.518c21.241 0 38.52 17.279 38.52 38.518v58.075c0 21.24-17.279 38.518-38.518 38.518zm-22.52-106.667c-5.555 0-10.074 4.52-10.074 10.074v58.075c0 5.554 4.52 10.074 10.074 10.074h22.518c5.555 0 10.074-4.52 10.074-10.074V38.518c0-5.554-4.52-10.074-10.074-10.074h-22.518z" fill="#2d527c"/><path d="M439.529 56.889h-34.196v39.704c0 13.419-10.877 24.296-24.296 24.296h-22.518c-13.42 0-24.297-10.877-24.297-24.296V56.889H177.778v39.704c0 13.419-10.877 24.296-24.296 24.296h-22.519c-13.419 0-24.296-10.877-24.296-24.296V56.889H72.471c-28.242 0-51.137 22.895-51.137 51.137v91.085h469.333v-91.085c0-28.242-22.895-51.137-51.138-51.137z" fill="#cee8fa"/><path d="M490.667 213.333H21.333c-7.855 0-14.222-6.369-14.222-14.222v-91.085c0-36.039 29.321-65.36 65.36-65.36h34.196c7.855 0 14.222 6.369 14.222 14.222v39.703c0 5.555 4.52 10.075 10.074 10.075h22.518c5.555 0 10.074-4.52 10.074-10.075V56.889c0-7.854 6.367-14.222 14.222-14.222h156.444c7.855 0 14.222 6.369 14.222 14.222v39.703c0 5.555 4.52 10.075 10.074 10.075h22.518c5.555 0 10.074-4.52 10.074-10.075V56.889c0-7.854 6.367-14.222 14.222-14.222h34.196c36.042 0 65.362 29.321 65.362 65.36v91.085c0 7.853-6.367 14.221-14.222 14.221zM35.556 184.889h440.889v-76.863c0-20.355-16.56-36.915-36.915-36.915h-19.974v25.481c0 21.241-17.279 38.519-38.518 38.519H358.52c-21.241 0-38.519-17.279-38.519-38.519V71.111H192v25.481c0 21.241-17.279 38.519-38.518 38.519h-22.519c-21.239 0-38.518-17.279-38.518-38.519V71.111H72.471c-20.355 0-36.915 16.56-36.915 36.915v76.863zm205.243 107.389l-8.478 5.262c-2.631 1.754-5.262 2.34-7.309 2.34-8.478 0-14.325-9.062-14.325-18.125 0-6.138 2.631-11.986 8.478-15.495l38.589-23.387c2.34-1.461 5.262-2.045 8.478-2.045 9.355 0 20.171 5.554 20.171 14.325V441.08c0 9.354-11.402 14.032-22.802 14.032-11.401 0-22.803-4.678-22.803-14.032l.001-148.802z" fill="#2d527c"/></svg>