<svg xmlns="http://www.w3.org/2000/svg" viewBox="0 0 499.304 499.304"><path d="M438.59 248.33c-1.205-21.498-18.632-36.012-39.792-36.012h-26.357c1.829-26.097 5.543-52.017 11.861-77.434 5.541-22.292 13.086-44.502 25.286-64.093 2.276-3.655 4.83-7.105 7.239-10.214 4.331-5.589 6.892-11.785 7.812-18.791 1.605-12.232-3.417-24.737-12.75-32.731-9.753-8.354-23.112-10.95-35.368-7.331-12.307 3.633-19.719 13.846-26.63 23.927-18.086 26.379-29.291 57.571-37.321 88.313-8.384 32.093-12.935 65.246-14.987 98.354h-95.848c-3.444-56.163-13.846-113.524-39.136-164.091-5.305-10.607-11.501-20.783-18.699-30.212C135.869 7.494 126.154.807 112.61.056 85.175-1.466 67.092 28.714 77.699 52.765c2.424 5.497 6.235 9.44 9.492 14.161 3.427 4.967 6.403 10.236 9.161 15.597 6.334 12.31 10.972 25.42 14.922 38.664 8.825 29.591 13.469 60.349 15.597 91.13h-26.36c-21.604 0-39.328 15.125-39.857 37.37-.284 11.942 6.145 23.45 15.661 30.36 7.16 5.199 15.494 7.01 24.196 7.01h26.358c-1.829 26.097-5.543 52.016-11.861 77.434-5.541 22.292-13.086 44.502-25.286 64.092-2.276 3.655-4.83 7.105-7.239 10.214-4.332 5.589-6.892 11.785-7.812 18.791-1.605 12.232 3.417 24.737 12.75 32.731 11.08 9.491 26.934 11.573 40.131 5.442 11.303-5.251 18.418-16.526 24.926-26.695 16.866-26.355 27.497-56.798 35.107-86.976 7.833-31.061 12.158-63.058 14.142-95.032h95.848c3.444 56.163 13.846 113.524 39.136 164.091 10.564 21.123 25.378 48.892 52.484 48.142 28.695-.794 44.667-33.939 29.842-57.522-2.922-4.649-6.393-8.373-9.45-13.184-3.102-4.882-5.819-10.004-8.35-15.201-5.946-12.205-10.318-25.148-14.067-38.175-8.256-28.685-12.672-58.395-14.732-88.151h26.359c21.16 0 38.586-14.514 39.792-36.012.047-.435.077-.883.065-1.357a9.98 9.98 0 0 0-.064-1.359zm-30.208 19.466c-3.935 1.882-9.211 1.261-13.474 1.261h-32.029c-4.707 0-9.263 4.097-9 9 1.59 29.62 5.385 59.211 12.293 88.077 5.578 23.307 13.406 46.614 25.406 67.452 4.769 8.282 12.997 15.666 15.148 25.086 2.375 10.401-5.643 19.826-15.225 22.283-11.758 3.014-19.413-6.759-25.292-15.185-7.033-10.079-12.852-20.978-17.997-32.122-22.235-48.162-30.58-103.022-33.134-155.591-.238-4.899-3.914-9-9-9H193.234c-5.086 0-8.762 4.101-9 9-2.796 57.552-12.566 117.996-39.973 169.375-5.257 9.855-11.228 20.271-19.007 28.379-8.357 8.711-21.71 6.312-29.063-2.146-6.338-7.29-4.209-18.034 1.223-24.936 6.405-8.137 11.671-16.96 16.202-26.262 21.608-44.356 29.197-95.618 31.817-144.41.263-4.903-4.293-9-9-9h-32.03c-4.552 0-8.794.19-13.201-1.209-7.698-2.444-12.363-10.448-12.547-18.161-.196-8.229 5.163-14.708 12.274-18.109 3.935-1.882 9.211-1.261 13.474-1.261h32.03c4.707 0 9.263-4.097 9-9-1.591-29.62-5.385-59.211-12.293-88.077-5.578-23.307-13.406-46.614-25.406-67.452-4.769-8.282-12.997-15.666-15.148-25.086-2.139-9.369 4.536-18.878 13.241-21.757 10.183-3.367 18.282 2.466 24.13 10.268 7.2 9.606 13.175 20.101 18.468 30.856 24.329 49.433 33.16 106.725 35.809 161.249.238 4.899 3.914 9 9 9h112.844c5.086 0 8.762-4.101 9-9 2.796-57.552 12.566-117.996 39.973-169.375 5.221-9.788 11.146-20.077 18.81-28.183 6.386-6.755 17.918-7.697 25.301-1.977 7.971 6.177 9.967 16.863 5.073 25.563-2.283 4.058-5.68 7.568-8.296 11.441-2.928 4.333-5.514 8.891-7.94 13.52-23.636 45.101-31.423 98.791-34.12 149.011-.263 4.903 4.293 9 9 9h32.029c4.552 0 8.794-.19 13.2 1.209 7.698 2.443 12.363 10.448 12.547 18.161-.198 8.315-4.897 14.579-12.273 18.108z"/></svg>