<svg xmlns="http://www.w3.org/2000/svg" viewBox="0 0 491.52 491.52"><path d="M481.287 126.943H10.231C4.579 126.943 0 131.525 0 137.176v230.576a10.229 10.229 0 0 0 10.231 10.231h471.057c5.651 0 10.233-4.58 10.233-10.231V137.176c-.001-5.651-4.583-10.233-10.234-10.233z" fill="#d5d6db"/><path d="M481.287 113.537H10.231C4.579 113.537 0 118.119 0 123.77v230.577c0 5.652 4.579 10.23 10.231 10.23h471.057c5.651 0 10.233-4.579 10.233-10.23V123.77c-.001-5.651-4.583-10.233-10.234-10.233z" fill="#ebf0f3"/><path d="M60.799 142.989h-31.11c-1.328 0-2.405 1.109-2.405 2.475v14.097c0 1.368 1.077 2.476 2.405 2.476h31.11c1.329 0 2.402-1.108 2.402-2.476v-14.097c-.001-1.366-1.074-2.475-2.402-2.475zm69.259 0h-31.11c-1.328 0-2.405 1.109-2.405 2.475v14.097c0 1.368 1.078 2.476 2.405 2.476h31.11c1.328 0 2.402-1.108 2.402-2.476v-14.097c0-1.366-1.074-2.475-2.402-2.475zm44.684 0h-31.11c-1.329 0-2.405 1.109-2.405 2.475v14.097c0 1.368 1.077 2.476 2.405 2.476h31.11c1.328 0 2.402-1.108 2.402-2.476v-14.097c0-1.366-1.074-2.475-2.402-2.475zm44.684 0h-31.111c-1.328 0-2.405 1.109-2.405 2.475v14.097c0 1.368 1.077 2.476 2.405 2.476h31.111c1.328 0 2.402-1.108 2.402-2.476v-14.097c0-1.366-1.074-2.475-2.402-2.475zm44.684 0h-31.111c-1.328 0-2.405 1.109-2.405 2.475v14.097c0 1.368 1.077 2.476 2.405 2.476h31.111c1.328 0 2.401-1.108 2.401-2.476v-14.097c0-1.366-1.073-2.475-2.401-2.475zm63.674 0h-31.111c-1.328 0-2.405 1.109-2.405 2.475v14.097c0 1.368 1.077 2.476 2.405 2.476h31.111c1.328 0 2.401-1.108 2.401-2.476v-14.097c0-1.366-1.073-2.475-2.401-2.475zm44.684 0h-31.111c-1.328 0-2.405 1.109-2.405 2.475v14.097c0 1.368 1.077 2.476 2.405 2.476h31.111c1.328 0 2.401-1.108 2.401-2.476v-14.097c-.001-1.366-1.073-2.475-2.401-2.475zm44.683 0h-31.11c-1.328 0-2.405 1.109-2.405 2.475v14.097c0 1.368 1.077 2.476 2.405 2.476h31.11c1.329 0 2.402-1.108 2.402-2.476v-14.097c-.001-1.366-1.074-2.475-2.402-2.475zm44.683 0h-31.11c-1.328 0-2.405 1.109-2.405 2.475v14.097c0 1.368 1.077 2.476 2.405 2.476h31.11c1.328 0 2.402-1.108 2.402-2.476v-14.097c0-1.366-1.074-2.475-2.402-2.475z" fill="#3a556a"/><path d="M60.799 140.091h-31.11c-1.328 0-2.405 1.108-2.405 2.475v14.097c0 1.367 1.077 2.475 2.405 2.475h31.11c1.329 0 2.402-1.108 2.402-2.475v-14.097c-.001-1.367-1.074-2.475-2.402-2.475z" fill="#64798a"/><path d="M60.799 187.831h-31.11c-1.328 0-2.405 1.108-2.405 2.475v22.069c0 1.368 1.077 2.475 2.405 2.475h31.11c1.329 0 2.402-1.107 2.402-2.475v-22.069c-.001-1.367-1.074-2.475-2.402-2.475z" fill="#3a556a"/><path d="M60.799 184.933h-31.11c-1.328 0-2.405 1.108-2.405 2.476v22.069c0 1.367 1.077 2.475 2.405 2.475h31.11c1.329 0 2.402-1.108 2.402-2.475v-22.069c-.001-1.368-1.074-2.476-2.402-2.476z" fill="#64798a"/><path d="M105.359 187.831H74.248c-1.328 0-2.405 1.108-2.405 2.475v22.069c0 1.368 1.077 2.475 2.405 2.475h31.111c1.328 0 2.401-1.107 2.401-2.475v-22.069c0-1.367-1.073-2.475-2.401-2.475z" fill="#3a556a"/><path d="M105.359 184.933H74.248c-1.328 0-2.405 1.108-2.405 2.476v22.069c0 1.367 1.077 2.475 2.405 2.475h31.111c1.328 0 2.401-1.108 2.401-2.475v-22.069c0-1.368-1.073-2.476-2.401-2.476z" fill="#64798a"/><path d="M149.918 187.831h-31.111c-1.328 0-2.405 1.108-2.405 2.475v22.069c0 1.368 1.077 2.475 2.405 2.475h31.111c1.328 0 2.401-1.107 2.401-2.475v-22.069c0-1.367-1.073-2.475-2.401-2.475z" fill="#3a556a"/><path d="M149.918 184.933h-31.111c-1.328 0-2.405 1.108-2.405 2.476v22.069c0 1.367 1.077 2.475 2.405 2.475h31.111c1.328 0 2.401-1.108 2.401-2.475v-22.069c0-1.368-1.073-2.476-2.401-2.476z" fill="#64798a"/><path d="M194.478 187.831h-31.111c-1.328 0-2.405 1.108-2.405 2.475v22.069c0 1.368 1.077 2.475 2.405 2.475h31.111c1.328 0 2.401-1.107 2.401-2.475v-22.069c-.001-1.367-1.074-2.475-2.401-2.475z" fill="#3a556a"/><path d="M194.478 184.933h-31.111c-1.328 0-2.405 1.108-2.405 2.476v22.069c0 1.367 1.077 2.475 2.405 2.475h31.111c1.328 0 2.401-1.108 2.401-2.475v-22.069c-.001-1.368-1.074-2.476-2.401-2.476z" fill="#64798a"/><path d="M239.037 187.831h-31.111c-1.328 0-2.405 1.108-2.405 2.475v22.069c0 1.368 1.077 2.475 2.405 2.475h31.111c1.328 0 2.402-1.107 2.402-2.475v-22.069c0-1.367-1.074-2.475-2.402-2.475z" fill="#3a556a"/><path d="M239.037 184.933h-31.111c-1.328 0-2.405 1.108-2.405 2.476v22.069c0 1.367 1.077 2.475 2.405 2.475h31.111c1.328 0 2.402-1.108 2.402-2.475v-22.069c0-1.368-1.074-2.476-2.402-2.476z" fill="#64798a"/><path d="M283.596 187.831h-31.111c-1.328 0-2.405 1.108-2.405 2.475v22.069c0 1.368 1.077 2.475 2.405 2.475h31.111c1.329 0 2.402-1.107 2.402-2.475v-22.069c.001-1.367-1.073-2.475-2.402-2.475z" fill="#3a556a"/><path d="M283.596 184.933h-31.111c-1.328 0-2.405 1.108-2.405 2.476v22.069c0 1.367 1.077 2.475 2.405 2.475h31.111c1.329 0 2.402-1.108 2.402-2.475v-22.069c.001-1.368-1.073-2.476-2.402-2.476z" fill="#64798a"/><path d="M328.156 187.831h-31.112c-1.328 0-2.405 1.108-2.405 2.475v22.069c0 1.368 1.077 2.475 2.405 2.475h31.112c1.328 0 2.402-1.107 2.402-2.475v-22.069c0-1.367-1.074-2.475-2.402-2.475z" fill="#3a556a"/><path d="M328.156 184.933h-31.112c-1.328 0-2.405 1.108-2.405 2.476v22.069c0 1.367 1.077 2.475 2.405 2.475h31.112c1.328 0 2.402-1.108 2.402-2.475v-22.069c0-1.368-1.074-2.476-2.402-2.476z" fill="#64798a"/><path d="M372.716 187.831h-31.112c-1.328 0-2.405 1.108-2.405 2.475v22.069c0 1.368 1.077 2.475 2.405 2.475h31.112c1.328 0 2.402-1.107 2.402-2.475v-22.069c-.001-1.367-1.074-2.475-2.402-2.475z" fill="#3a556a"/><path d="M372.716 184.933h-31.112c-1.328 0-2.405 1.108-2.405 2.476v22.069c0 1.367 1.077 2.475 2.405 2.475h31.112c1.328 0 2.402-1.108 2.402-2.475v-22.069c-.001-1.368-1.074-2.476-2.402-2.476z" fill="#64798a"/><path d="M417.275 187.831h-31.11c-1.329 0-2.405 1.108-2.405 2.475v22.069c0 1.368 1.076 2.475 2.405 2.475h31.11c1.328 0 2.402-1.107 2.402-2.475v-22.069c0-1.367-1.074-2.475-2.402-2.475z" fill="#3a556a"/><path d="M417.275 184.933h-31.11c-1.329 0-2.405 1.108-2.405 2.476v22.069c0 1.367 1.076 2.475 2.405 2.475h31.11c1.328 0 2.402-1.108 2.402-2.475v-22.069c0-1.368-1.074-2.476-2.402-2.476z" fill="#64798a"/><path d="M461.834 187.831h-31.11c-1.328 0-2.405 1.108-2.405 2.475v22.069c0 1.368 1.077 2.475 2.405 2.475h31.11c1.328 0 2.402-1.107 2.402-2.475v-22.069c0-1.367-1.074-2.475-2.402-2.475z" fill="#3a556a"/><path d="M461.834 184.933h-31.11c-1.328 0-2.405 1.108-2.405 2.476v22.069c0 1.367 1.077 2.475 2.405 2.475h31.11c1.328 0 2.402-1.108 2.402-2.475v-22.069c0-1.368-1.074-2.476-2.402-2.476z" fill="#64798a"/><path d="M87.4 228.889H29.689c-1.328 0-2.405 1.109-2.405 2.475v22.069c0 1.367 1.077 2.475 2.405 2.475H87.4c1.328 0 2.401-1.108 2.401-2.475v-22.069c0-1.366-1.073-2.475-2.401-2.475z" fill="#3a556a"/><path d="M87.4 225.991H29.689c-1.328 0-2.405 1.108-2.405 2.475v22.069c0 1.367 1.077 2.476 2.405 2.476H87.4c1.328 0 2.401-1.109 2.401-2.476v-22.069c0-1.367-1.073-2.475-2.401-2.475z" fill="#64798a"/><path d="M132.809 228.889h-31.111c-1.328 0-2.405 1.109-2.405 2.475v22.069c0 1.367 1.077 2.475 2.405 2.475h31.111c1.329 0 2.402-1.108 2.402-2.475v-22.069c.001-1.366-1.073-2.475-2.402-2.475z" fill="#3a556a"/><path d="M132.809 225.991h-31.111c-1.328 0-2.405 1.108-2.405 2.475v22.069c0 1.367 1.077 2.476 2.405 2.476h31.111c1.329 0 2.402-1.109 2.402-2.476v-22.069c.001-1.367-1.073-2.475-2.402-2.475z" fill="#64798a"/><path d="M177.37 228.889h-31.111c-1.329 0-2.405 1.109-2.405 2.475v22.069c0 1.367 1.077 2.475 2.405 2.475h31.111c1.328 0 2.402-1.108 2.402-2.475v-22.069c-.001-1.366-1.075-2.475-2.402-2.475z" fill="#3a556a"/><path d="M177.37 225.991h-31.111c-1.329 0-2.405 1.108-2.405 2.475v22.069c0 1.367 1.077 2.476 2.405 2.476h31.111c1.328 0 2.402-1.109 2.402-2.476v-22.069c-.001-1.367-1.075-2.475-2.402-2.475z" fill="#64798a"/><path d="M221.929 228.889h-31.11c-1.329 0-2.406 1.109-2.406 2.475v22.069c0 1.367 1.077 2.475 2.406 2.475h31.11c1.328 0 2.402-1.108 2.402-2.475v-22.069c-.001-1.366-1.074-2.475-2.402-2.475z" fill="#3a556a"/><path d="M221.929 225.991h-31.11c-1.329 0-2.406 1.108-2.406 2.475v22.069c0 1.367 1.077 2.476 2.406 2.476h31.11c1.328 0 2.402-1.109 2.402-2.476v-22.069c-.001-1.367-1.074-2.475-2.402-2.475z" fill="#64798a"/><path d="M266.488 228.889h-31.11c-1.329 0-2.405 1.109-2.405 2.475v22.069c0 1.367 1.077 2.475 2.405 2.475h31.11c1.329 0 2.402-1.108 2.402-2.475v-22.069c0-1.366-1.073-2.475-2.402-2.475z" fill="#3a556a"/><path d="M266.488 225.991h-31.11c-1.329 0-2.405 1.108-2.405 2.475v22.069c0 1.367 1.077 2.476 2.405 2.476h31.11c1.329 0 2.402-1.109 2.402-2.476v-22.069c0-1.367-1.073-2.475-2.402-2.475z" fill="#64798a"/><path d="M311.048 228.889h-31.111c-1.328 0-2.405 1.109-2.405 2.475v22.069c0 1.367 1.077 2.475 2.405 2.475h31.111c1.328 0 2.401-1.108 2.401-2.475v-22.069c0-1.366-1.073-2.475-2.401-2.475z" fill="#3a556a"/><path d="M311.048 225.991h-31.111c-1.328 0-2.405 1.108-2.405 2.475v22.069c0 1.367 1.077 2.476 2.405 2.476h31.111c1.328 0 2.401-1.109 2.401-2.476v-22.069c0-1.367-1.073-2.475-2.401-2.475z" fill="#64798a"/><path d="M355.607 228.889h-31.11c-1.328 0-2.405 1.109-2.405 2.475v22.069c0 1.367 1.077 2.475 2.405 2.475h31.11c1.329 0 2.402-1.108 2.402-2.475v-22.069c0-1.366-1.073-2.475-2.402-2.475z" fill="#3a556a"/><path d="M355.607 225.991h-31.11c-1.328 0-2.405 1.108-2.405 2.475v22.069c0 1.367 1.077 2.476 2.405 2.476h31.11c1.329 0 2.402-1.109 2.402-2.476v-22.069c0-1.367-1.073-2.475-2.402-2.475z" fill="#64798a"/><path d="M400.167 228.889h-31.111c-1.328 0-2.405 1.109-2.405 2.475v22.069c0 1.367 1.077 2.475 2.405 2.475h31.111c1.328 0 2.401-1.108 2.401-2.475v-22.069c0-1.366-1.073-2.475-2.401-2.475z" fill="#3a556a"/><path d="M400.167 225.991h-31.111c-1.328 0-2.405 1.108-2.405 2.475v22.069c0 1.367 1.077 2.476 2.405 2.476h31.111c1.328 0 2.401-1.109 2.401-2.476v-22.069c0-1.367-1.073-2.475-2.401-2.475z" fill="#64798a"/><path d="M461.834 228.889h-48.219c-1.328 0-2.405 1.109-2.405 2.475v22.069c0 1.367 1.077 2.475 2.405 2.475h48.219c1.328 0 2.402-1.108 2.402-2.475v-22.069c0-1.366-1.074-2.475-2.402-2.475z" fill="#3a556a"/><path d="M461.834 225.991h-48.219c-1.328 0-2.405 1.108-2.405 2.475v22.069c0 1.367 1.077 2.476 2.405 2.476h48.219c1.328 0 2.402-1.109 2.402-2.476v-22.069c0-1.367-1.074-2.475-2.402-2.475z" fill="#64798a"/><path d="M105.359 269.947h-75.67c-1.328 0-2.405 1.108-2.405 2.475v22.069c0 1.367 1.077 2.475 2.405 2.475h75.67c1.328 0 2.401-1.108 2.401-2.475v-22.069c0-1.367-1.073-2.475-2.401-2.475z" fill="#3a556a"/><path d="M105.359 267.048h-75.67c-1.328 0-2.405 1.108-2.405 2.475v22.069c0 1.368 1.077 2.476 2.405 2.476h75.67c1.328 0 2.401-1.108 2.401-2.476v-22.069c0-1.367-1.073-2.475-2.401-2.475z" fill="#64798a"/><path d="M149.918 269.947h-31.111c-1.328 0-2.405 1.108-2.405 2.475v22.069c0 1.367 1.077 2.475 2.405 2.475h31.111c1.328 0 2.401-1.108 2.401-2.475v-22.069c0-1.367-1.073-2.475-2.401-2.475z" fill="#3a556a"/><path d="M149.918 267.048h-31.111c-1.328 0-2.405 1.108-2.405 2.475v22.069c0 1.368 1.077 2.476 2.405 2.476h31.111c1.328 0 2.401-1.108 2.401-2.476v-22.069c0-1.367-1.073-2.475-2.401-2.475z" fill="#64798a"/><path d="M194.478 269.947h-31.111c-1.328 0-2.405 1.108-2.405 2.475v22.069c0 1.367 1.077 2.475 2.405 2.475h31.111c1.328 0 2.401-1.108 2.401-2.475v-22.069c-.001-1.367-1.074-2.475-2.401-2.475z" fill="#3a556a"/><path d="M194.478 267.048h-31.111c-1.328 0-2.405 1.108-2.405 2.475v22.069c0 1.368 1.077 2.476 2.405 2.476h31.111c1.328 0 2.401-1.108 2.401-2.476v-22.069c-.001-1.367-1.074-2.475-2.401-2.475z" fill="#64798a"/><path d="M239.037 269.947h-31.111c-1.328 0-2.405 1.108-2.405 2.475v22.069c0 1.367 1.077 2.475 2.405 2.475h31.111c1.328 0 2.402-1.108 2.402-2.475v-22.069c0-1.367-1.074-2.475-2.402-2.475z" fill="#3a556a"/><path d="M239.037 267.048h-31.111c-1.328 0-2.405 1.108-2.405 2.475v22.069c0 1.368 1.077 2.476 2.405 2.476h31.111c1.328 0 2.402-1.108 2.402-2.476v-22.069c0-1.367-1.074-2.475-2.402-2.475z" fill="#64798a"/><path d="M283.596 269.947h-31.111c-1.328 0-2.405 1.108-2.405 2.475v22.069c0 1.367 1.077 2.475 2.405 2.475h31.111c1.329 0 2.402-1.108 2.402-2.475v-22.069c.001-1.367-1.073-2.475-2.402-2.475z" fill="#3a556a"/><path d="M283.596 267.048h-31.111c-1.328 0-2.405 1.108-2.405 2.475v22.069c0 1.368 1.077 2.476 2.405 2.476h31.111c1.329 0 2.402-1.108 2.402-2.476v-22.069c.001-1.367-1.073-2.475-2.402-2.475z" fill="#64798a"/><path d="M372.716 269.947h-31.112c-1.328 0-2.405 1.108-2.405 2.475v22.069c0 1.367 1.077 2.475 2.405 2.475h31.112c1.328 0 2.402-1.108 2.402-2.475v-22.069c-.001-1.367-1.074-2.475-2.402-2.475z" fill="#3a556a"/><path d="M372.716 267.048h-31.112c-1.328 0-2.405 1.108-2.405 2.475v22.069c0 1.368 1.077 2.476 2.405 2.476h31.112c1.328 0 2.402-1.108 2.402-2.476v-22.069c-.001-1.367-1.074-2.475-2.402-2.475z" fill="#64798a"/><path d="M461.834 269.947h-31.11c-1.328 0-2.405 1.108-2.405 2.475v22.069c0 1.367 1.077 2.475 2.405 2.475h31.11c1.328 0 2.402-1.108 2.402-2.475v-22.069c0-1.367-1.074-2.475-2.402-2.475z" fill="#3a556a"/><path d="M461.834 267.048h-31.11c-1.328 0-2.405 1.108-2.405 2.475v22.069c0 1.368 1.077 2.476 2.405 2.476h31.11c1.328 0 2.402-1.108 2.402-2.476v-22.069c0-1.367-1.074-2.475-2.402-2.475z" fill="#64798a"/><path d="M60.799 311.005h-31.11c-1.328 0-2.405 1.108-2.405 2.475v22.07c0 1.366 1.077 2.474 2.405 2.474h31.11c1.329 0 2.402-1.108 2.402-2.474v-22.07c-.001-1.367-1.074-2.475-2.402-2.475z" fill="#3a556a"/><path d="M60.799 308.106h-31.11c-1.328 0-2.405 1.108-2.405 2.475v22.069c0 1.366 1.077 2.475 2.405 2.475h31.11c1.329 0 2.402-1.109 2.402-2.475v-22.069c-.001-1.367-1.074-2.475-2.402-2.475z" fill="#64798a"/><path d="M239.037 311.005H74.248c-1.328 0-2.405 1.108-2.405 2.475v22.07c0 1.366 1.077 2.474 2.405 2.474h164.789c1.328 0 2.402-1.108 2.402-2.474v-22.07c0-1.367-1.074-2.475-2.402-2.475z" fill="#3a556a"/><path d="M239.037 308.106H74.248c-1.328 0-2.405 1.108-2.405 2.475v22.069c0 1.366 1.077 2.475 2.405 2.475h164.789c1.328 0 2.402-1.109 2.402-2.475v-22.069c0-1.367-1.074-2.475-2.402-2.475z" fill="#64798a"/><path d="M283.596 311.005h-31.111c-1.328 0-2.405 1.108-2.405 2.475v22.07c0 1.366 1.077 2.474 2.405 2.474h31.111c1.329 0 2.402-1.108 2.402-2.474v-22.07c.001-1.367-1.073-2.475-2.402-2.475z" fill="#3a556a"/><path d="M283.596 308.106h-31.111c-1.328 0-2.405 1.108-2.405 2.475v22.069c0 1.366 1.077 2.475 2.405 2.475h31.111c1.329 0 2.402-1.109 2.402-2.475v-22.069c.001-1.367-1.073-2.475-2.402-2.475z" fill="#64798a"/><path d="M328.156 311.005h-31.112c-1.328 0-2.405 1.108-2.405 2.475v22.07c0 1.366 1.077 2.474 2.405 2.474h31.112c1.328 0 2.402-1.108 2.402-2.474v-22.07c0-1.367-1.074-2.475-2.402-2.475z" fill="#3a556a"/><path d="M328.156 308.106h-31.112c-1.328 0-2.405 1.108-2.405 2.475v22.069c0 1.366 1.077 2.475 2.405 2.475h31.112c1.328 0 2.402-1.109 2.402-2.475v-22.069c0-1.367-1.074-2.475-2.402-2.475z" fill="#64798a"/><path d="M372.716 311.005h-31.112c-1.328 0-2.405 1.108-2.405 2.475v22.07c0 1.366 1.077 2.474 2.405 2.474h31.112c1.328 0 2.402-1.108 2.402-2.474v-22.07c-.001-1.367-1.074-2.475-2.402-2.475z" fill="#3a556a"/><path d="M372.716 308.106h-31.112c-1.328 0-2.405 1.108-2.405 2.475v22.069c0 1.366 1.077 2.475 2.405 2.475h31.112c1.328 0 2.402-1.109 2.402-2.475v-22.069c-.001-1.367-1.074-2.475-2.402-2.475z" fill="#64798a"/><path d="M417.275 311.005h-31.11c-1.329 0-2.405 1.108-2.405 2.475v22.07c0 1.366 1.076 2.474 2.405 2.474h31.11c1.328 0 2.402-1.108 2.402-2.474v-22.07c0-1.367-1.074-2.475-2.402-2.475z" fill="#3a556a"/><path d="M417.275 308.106h-31.11c-1.329 0-2.405 1.108-2.405 2.475v22.069c0 1.366 1.076 2.475 2.405 2.475h31.11c1.328 0 2.402-1.109 2.402-2.475v-22.069c0-1.367-1.074-2.475-2.402-2.475z" fill="#64798a"/><path d="M461.834 311.005h-31.11c-1.328 0-2.405 1.108-2.405 2.475v22.07c0 1.366 1.077 2.474 2.405 2.474h31.11c1.328 0 2.402-1.108 2.402-2.474v-22.07c0-1.367-1.074-2.475-2.402-2.475z" fill="#3a556a"/><path d="M461.834 308.106h-31.11c-1.328 0-2.405 1.108-2.405 2.475v22.069c0 1.366 1.077 2.475 2.405 2.475h31.11c1.328 0 2.402-1.109 2.402-2.475v-22.069c0-1.367-1.074-2.475-2.402-2.475zM130.058 140.091h-31.11c-1.328 0-2.405 1.108-2.405 2.475v14.097c0 1.367 1.078 2.475 2.405 2.475h31.11c1.328 0 2.402-1.108 2.402-2.475v-14.097c0-1.367-1.074-2.475-2.402-2.475zm44.684 0h-31.11c-1.329 0-2.405 1.108-2.405 2.475v14.097c0 1.367 1.077 2.475 2.405 2.475h31.11c1.328 0 2.402-1.108 2.402-2.475v-14.097c0-1.367-1.074-2.475-2.402-2.475zm44.684 0h-31.111c-1.328 0-2.405 1.108-2.405 2.475v14.097c0 1.367 1.077 2.475 2.405 2.475h31.111c1.328 0 2.402-1.108 2.402-2.475v-14.097c0-1.367-1.074-2.475-2.402-2.475zm44.684 0h-31.111c-1.328 0-2.405 1.108-2.405 2.475v14.097c0 1.367 1.077 2.475 2.405 2.475h31.111c1.328 0 2.401-1.108 2.401-2.475v-14.097c0-1.367-1.073-2.475-2.401-2.475zm63.674 0h-31.111c-1.328 0-2.405 1.108-2.405 2.475v14.097c0 1.367 1.077 2.475 2.405 2.475h31.111c1.328 0 2.401-1.108 2.401-2.475v-14.097c0-1.367-1.073-2.475-2.401-2.475zm44.684 0h-31.111c-1.328 0-2.405 1.108-2.405 2.475v14.097c0 1.367 1.077 2.475 2.405 2.475h31.111c1.328 0 2.401-1.108 2.401-2.475v-14.097c-.001-1.367-1.073-2.475-2.401-2.475zm44.683 0h-31.11c-1.328 0-2.405 1.108-2.405 2.475v14.097c0 1.367 1.077 2.475 2.405 2.475h31.11c1.329 0 2.402-1.108 2.402-2.475v-14.097c-.001-1.367-1.074-2.475-2.402-2.475zm44.683 0h-31.11c-1.328 0-2.405 1.108-2.405 2.475v14.097c0 1.367 1.077 2.475 2.405 2.475h31.11c1.328 0 2.402-1.108 2.402-2.475v-14.097c0-1.367-1.074-2.475-2.402-2.475z" fill="#64798a"/></svg>